<?xml version="1.0" standalone="no"?>
<!DOCTYPE svg PUBLIC "-//W3C//DTD SVG 20010904//EN"
 "http://www.w3.org/TR/2001/REC-SVG-20010904/DTD/svg10.dtd">
<svg version="1.0" xmlns="http://www.w3.org/2000/svg"
 width="1600.000000pt" height="1600.000000pt" viewBox="0 0 1600.000000 1600.000000"
 preserveAspectRatio="xMidYMid meet">
<metadata>
Created by potrace 1.15, written by Peter Selinger 2001-2017
</metadata>
<g transform="translate(0.000000,1600.000000) scale(0.100000,-0.100000)"
fill="#000000" stroke="none">
<path d="M7565 15884 c-263 -16 -405 -27 -560 -44 -2949 -327 -5474 -2342
-6461 -5157 -223 -637 -358 -1291 -416 -2023 -16 -201 -16 -879 0 -1080 50
-620 150 -1162 317 -1714 478 -1577 1452 -2966 2780 -3963 1535 -1152 3442
-1692 5360 -1517 1811 164 3494 954 4785 2244 1696 1696 2505 4045 2219 6440
-237 1992 -1273 3845 -2859 5115 -1238 991 -2693 1562 -4295 1685 -141 11
-758 21 -870 14z m4336 -2080 c622 -440 1205 -1021 1649 -1645 65 -90 78 -115
68 -125 -7 -6 -568 -390 -1247 -852 l-1234 -841 -56 79 c-204 285 -533 613
-845 840 -49 36 -99 74 -112 85 l-24 20 848 1252 c466 689 850 1253 853 1253
4 0 49 -30 100 -66z m-3656 -2658 c1306 -160 2358 -1130 2618 -2416 58 -284
75 -675 42 -951 -83 -706 -375 -1310 -874 -1810 -481 -481 -1031 -756 -1731
-866 -165 -26 -672 -26 -845 0 -1015 152 -1856 760 -2306 1667 -359 723 -414
1558 -156 2333 156 465 389 841 741 1193 166 166 298 275 469 387 381 251 759
394 1242 472 119 19 613 13 800 -9z m-3573 -5315 c212 -309 576 -675 910 -914
l77 -55 -841 -1233 c-462 -679 -846 -1240 -852 -1247 -10 -10 -39 7 -149 85
-572 412 -1093 924 -1518 1493 -160 214 -177 240 -158 251 7 4 568 386 1244
848 677 462 1232 840 1235 840 3 0 26 -31 52 -68z"/>
<path d="M7784 8800 c-80 -11 -191 -50 -262 -92 -31 -18 -88 -65 -127 -103
-80 -81 -126 -153 -161 -254 -61 -177 -50 -367 31 -533 168 -343 594 -480 938
-301 109 57 232 183 285 293 53 109 72 191 72 311 0 267 -142 498 -380 615
-114 56 -270 81 -396 64z"/>
</g>
</svg>
